<svg width="32" height="32" viewBox="0 0 32 32" fill="none" xmlns="http://www.w3.org/2000/svg">
<rect x="1" y="1" width="30" height="30" rx="15" fill="#101115"/>
<g clip-path="url(#clip0_859_1187)">
<path d="M20.8 16.8V21.6C20.8 22.0244 20.6315 22.4313 20.3314 22.7314C20.0314 23.0314 19.6244 23.2 19.2 23.2H10.4C9.9757 23.2 9.56874 23.0314 9.26868 22.7314C8.96862 22.4313 8.80005 22.0244 8.80005 21.6V12.8C8.80005 12.3757 8.96862 11.9687 9.26868 11.6686C9.56874 11.3686 9.9757 11.2 10.4 11.2H15.2" stroke="#DBDDE0" stroke-width="2" stroke-linecap="round" stroke-linejoin="round"/>
<path d="M18.3999 8.79999H23.1999V13.6" stroke="#DBDDE0" stroke-width="2" stroke-linecap="round" stroke-linejoin="round"/>
<path d="M14.3999 17.6L23.1999 8.79999" stroke="#DBDDE0" stroke-width="2" stroke-linecap="round" stroke-linejoin="round"/>
</g>
<rect x="1" y="1" width="30" height="30" rx="15" stroke="#DBDDE0" stroke-width="2"/>
<defs>
<clipPath id="clip0_859_1187">
<rect width="16" height="16" fill="white" transform="translate(8 8)"/>
</clipPath>
</defs>
</svg>
