<svg width="32" height="32" viewBox="0 0 32 32" fill="none" xmlns="http://www.w3.org/2000/svg">
<rect x="1" y="1" width="30" height="30" rx="15" fill="#DBDDE0"/>
<g clip-path="url(#clip0_723_1400)">
<path fill-rule="evenodd" clip-rule="evenodd" d="M10.4 11.7C10.1083 11.7 9.82852 11.8159 9.62223 12.0222C9.41594 12.2285 9.30005 12.5083 9.30005 12.8V21.6C9.30005 21.8918 9.41594 22.1715 9.62223 22.3778C9.82852 22.5841 10.1083 22.7 10.4 22.7H19.2C19.4918 22.7 19.7716 22.5841 19.9779 22.3778C20.1842 22.1715 20.3 21.8918 20.3 21.6V16.8C20.3 16.5239 20.5239 16.3 20.8 16.3C21.0762 16.3 21.3 16.5239 21.3 16.8V21.6C21.3 22.157 21.0788 22.6911 20.685 23.0849C20.2911 23.4788 19.757 23.7 19.2 23.7H10.4C9.84309 23.7 9.30895 23.4788 8.91512 23.0849C8.5213 22.6911 8.30005 22.157 8.30005 21.6V12.8C8.30005 12.2431 8.5213 11.7089 8.91512 11.3151C9.30895 10.9213 9.84309 10.7 10.4 10.7H15.2C15.4762 10.7 15.7 10.9239 15.7 11.2C15.7 11.4762 15.4762 11.7 15.2 11.7H10.4Z" fill="#101115" stroke="#101115" stroke-linecap="round" stroke-linejoin="round"/>
<path fill-rule="evenodd" clip-rule="evenodd" d="M17.8999 8.79999C17.8999 8.52385 18.1238 8.29999 18.3999 8.29999H23.1999C23.476 8.29999 23.6999 8.52385 23.6999 8.79999V13.6C23.6999 13.8761 23.476 14.1 23.1999 14.1C22.9238 14.1 22.6999 13.8761 22.6999 13.6V9.29999H18.3999C18.1238 9.29999 17.8999 9.07613 17.8999 8.79999Z" fill="#101115" stroke="#101115" stroke-linecap="round" stroke-linejoin="round"/>
<path fill-rule="evenodd" clip-rule="evenodd" d="M23.5535 8.44643C23.7487 8.6417 23.7487 8.95828 23.5535 9.15354L14.7535 17.9535C14.5582 18.1488 14.2416 18.1488 14.0463 17.9535C13.8511 17.7583 13.8511 17.4417 14.0463 17.2464L22.8463 8.44643C23.0416 8.25117 23.3582 8.25117 23.5535 8.44643Z" fill="#101115" stroke="#101115" stroke-linecap="round" stroke-linejoin="round"/>
</g>
<rect x="1" y="1" width="30" height="30" rx="15" stroke="#101115" stroke-width="2"/>
<defs>
<clipPath id="clip0_723_1400">
<rect width="16" height="16" fill="white" transform="translate(8 8)"/>
</clipPath>
</defs>
</svg>
