<svg width="32" height="32" viewBox="0 0 32 32" fill="none" xmlns="http://www.w3.org/2000/svg">
<path fill-rule="evenodd" clip-rule="evenodd" d="M10.4 12.2C10.2409 12.2 10.0883 12.2632 9.97578 12.3757C9.86326 12.4883 9.80005 12.6409 9.80005 12.8V21.6C9.80005 21.7591 9.86326 21.9118 9.97578 22.0243C10.0883 22.1368 10.2409 22.2 10.4 22.2H19.2C19.3592 22.2 19.5118 22.1368 19.6243 22.0243C19.7368 21.9118 19.8 21.7591 19.8 21.6V16.8C19.8 16.2477 20.2478 15.8 20.8 15.8C21.3523 15.8 21.8 16.2477 21.8 16.8V21.6C21.8 22.2896 21.5261 22.9509 21.0385 23.4385C20.5509 23.9261 19.8896 24.2 19.2 24.2H10.4C9.71049 24.2 9.04917 23.9261 8.56157 23.4385C8.07398 22.9509 7.80005 22.2896 7.80005 21.6V12.8C7.80005 12.1104 8.07398 11.4491 8.56157 10.9615C9.04917 10.4739 9.71049 10.2 10.4 10.2H15.2C15.7523 10.2 16.2 10.6477 16.2 11.2C16.2 11.7523 15.7523 12.2 15.2 12.2H10.4Z" fill="#101115"/>
<path fill-rule="evenodd" clip-rule="evenodd" d="M17.3999 8.79999C17.3999 8.2477 17.8476 7.79999 18.3999 7.79999H23.1999C23.7522 7.79999 24.1999 8.2477 24.1999 8.79999V13.6C24.1999 14.1523 23.7522 14.6 23.1999 14.6C22.6476 14.6 22.1999 14.1523 22.1999 13.6V9.79999H18.3999C17.8476 9.79999 17.3999 9.35227 17.3999 8.79999Z" fill="#101115"/>
<path fill-rule="evenodd" clip-rule="evenodd" d="M23.907 8.09288C24.2975 8.48341 24.2975 9.11657 23.907 9.50709L15.107 18.3071C14.7165 18.6976 14.0833 18.6976 13.6928 18.3071C13.3023 17.9166 13.3023 17.2834 13.6928 16.8929L22.4928 8.09288C22.8833 7.70236 23.5165 7.70236 23.907 8.09288Z" fill="#101115"/>
<path fill-rule="evenodd" clip-rule="evenodd" d="M16 30C23.732 30 30 23.732 30 16C30 8.26801 23.732 2 16 2C8.26801 2 2 8.26801 2 16C2 23.732 8.26801 30 16 30ZM16 32C24.8366 32 32 24.8366 32 16C32 7.16344 24.8366 0 16 0C7.16344 0 0 7.16344 0 16C0 24.8366 7.16344 32 16 32Z" fill="#101115"/>
</svg>
