<svg width="32" height="32" viewBox="0 0 32 32" fill="none" xmlns="http://www.w3.org/2000/svg">
<path d="M26.4423 6.13968C24.1692 2.47554 20.239 0.180274 15.9467 0.0101501C11.6543 -0.159974 7.5565 1.81711 5.00349 5.28998C1.10061 7.23697 -0.855913 11.7134 0.357406 15.9201C0.121189 16.9151 0.0018419 17.9345 0.00180839 18.9575C0.00180839 26.1497 5.82253 32 12.9763 32C15.5228 32.0035 18.0134 31.2498 20.1348 29.8337C25.5784 29.3642 30.1459 25.5168 31.5582 20.2113C32.9706 14.9058 30.925 9.27941 26.4423 6.13968" fill="#DBDDE0"/>
<path d="M9.90558 10.1787C9.91072 10.1474 9.90301 10.1153 9.88421 10.0898C9.86656 10.0652 9.83939 10.0493 9.8094 10.0459H8.07708C7.99751 10.0504 7.92196 10.0825 7.86333 10.1367L6.51186 11.5246C6.48424 11.5554 6.47634 11.5993 6.49146 11.6379C6.50569 11.6759 6.54055 11.7022 6.58085 11.7053H7.26095C7.34874 11.7062 7.43168 11.7459 7.48779 11.8138C7.54391 11.8817 7.56754 11.9709 7.55242 12.0578L6.24662 19.544V19.544C6.14946 20.3146 6.21262 20.9055 6.54393 21.302C6.85094 21.6683 7.34936 21.8548 8.02655 21.8548C8.37431 21.8506 8.72046 21.8066 9.05837 21.724C9.17542 21.696 9.2643 21.6001 9.28377 21.4808L9.48683 20.2716C9.4926 20.2375 9.47995 20.2028 9.45358 20.1805C9.42721 20.1582 9.39106 20.1517 9.35859 20.1632C9.13708 20.2426 8.90392 20.2842 8.66877 20.2863C8.48125 20.2863 8.35689 20.2472 8.28985 20.1671C8.22281 20.0871 8.19269 19.9025 8.23447 19.6583L9.90558 10.1787Z" fill="#101115"/>
<path d="M14.0075 14.6377H12.3753C12.2976 14.6378 12.2231 14.6683 12.1674 14.7227L10.8227 16.0324C10.7941 16.0601 10.7852 16.1025 10.8001 16.1395C10.8151 16.1765 10.851 16.2006 10.8907 16.2004H11.5426C11.6306 16.2013 11.7138 16.2411 11.7699 16.3092C11.8261 16.3773 11.8496 16.4668 11.8341 16.5539L10.9364 21.6531C10.9315 21.6818 10.9395 21.7111 10.9583 21.7332C10.977 21.7553 11.0046 21.7678 11.0335 21.7674H12.6852C12.8285 21.7661 12.9507 21.6629 12.9767 21.5213V21.5213L14.1037 14.7481C14.1083 14.7196 14.1002 14.6905 14.0814 14.6687C14.0627 14.6468 14.0353 14.6344 14.0066 14.6348" fill="#101115"/>
<path d="M13.2072 11.7617C12.4591 11.7617 11.9062 12.6192 12.4688 13.4084C12.4879 13.4351 12.5112 13.4585 12.5378 13.4777C13.3228 14.0452 14.1768 13.4895 14.1768 12.7364C14.1768 12.197 13.7418 11.7598 13.2052 11.7598" fill="#101115"/>
<path d="M19.6181 20.1637C19.4015 20.2417 19.1737 20.2833 18.9438 20.2868C18.7495 20.2868 18.6173 20.2468 18.5484 20.1647C18.4794 20.0827 18.4512 19.9049 18.493 19.6588L19.0069 16.7835C19.1352 16.048 19.0069 15.422 18.6319 14.9747C18.2831 14.5576 17.7381 14.3271 17.0958 14.3271C16.5159 14.3406 15.9489 14.503 15.449 14.7989C15.4232 14.8134 15.4053 14.8389 15.4004 14.8682L15.1653 16.2844C15.1592 16.3225 15.1759 16.3607 15.2081 16.3818C15.2402 16.4029 15.2817 16.403 15.314 16.3821C15.7386 16.1027 16.1214 15.9611 16.4517 15.9611C16.6635 15.9611 16.818 16.0178 16.9103 16.1281C17.0317 16.2746 17.0618 16.5276 16.9997 16.8792L16.5139 19.5445C16.3778 20.3181 16.4779 20.9119 16.8053 21.3094C17.1075 21.6717 17.5972 21.8553 18.2627 21.8553C18.6166 21.8515 18.969 21.8073 19.313 21.7235C19.4294 21.6953 19.5177 21.6 19.5374 21.4813L19.7405 20.2721C19.7463 20.238 19.7336 20.2033 19.7072 20.181C19.6809 20.1587 19.6447 20.1522 19.6122 20.1637" fill="#101115"/>
<path d="M25.7489 14.5032C25.7122 14.4588 25.6578 14.433 25.6003 14.4328H24.2916C24.2034 14.432 24.1201 14.392 24.0639 14.3237C24.0077 14.2553 23.9844 14.1656 24.0001 14.0783L24.2245 12.837C24.235 12.7794 24.2193 12.7201 24.1816 12.6755C24.144 12.6308 24.0884 12.6055 24.0302 12.6065H23.3686C23.2909 12.6066 23.2164 12.6371 23.1607 12.6914L22.0385 13.7853C21.993 13.8297 21.9627 13.8875 21.952 13.9504L21.9122 14.1838C21.8878 14.3269 21.7652 14.4321 21.6207 14.4338H20.8133C20.718 14.4323 20.6357 14.5006 20.619 14.595L20.3897 15.8773C20.3796 15.9348 20.3955 15.9937 20.4331 16.0382C20.4707 16.0826 20.526 16.1078 20.584 16.1069H21.2185C21.3063 16.1078 21.3892 16.1475 21.4453 16.2154C21.5014 16.2833 21.5251 16.3725 21.51 16.4594L20.9639 19.5946C20.8347 20.331 20.9494 20.9394 21.2952 21.3526C21.6411 21.7657 22.2163 21.9835 22.9916 21.9835C23.5953 21.9815 24.1925 21.8583 24.7482 21.6211C24.8395 21.5812 24.9047 21.498 24.9221 21.3994L25.1164 20.2939C25.1286 20.2252 25.1033 20.1552 25.0502 20.1103C24.9971 20.0654 24.9242 20.0523 24.859 20.0761C24.551 20.1893 24.1293 20.3446 23.6474 20.3446C23.356 20.3446 23.1616 20.2899 23.0645 20.1776C22.9864 20.0665 22.9619 19.9261 22.9974 19.7948L23.5998 16.3559C23.6246 16.2132 23.7471 16.1085 23.8913 16.1069H25.3603C25.4556 16.1083 25.538 16.0401 25.5546 15.9457L25.7839 14.6633C25.7962 14.6074 25.7834 14.5488 25.7489 14.5032Z" fill="#101115"/>
</svg>
