<svg width="32" height="32" viewBox="0 0 32 32" fill="none" xmlns="http://www.w3.org/2000/svg">
<path fill-rule="evenodd" clip-rule="evenodd" d="M7.03147 16C7.12344 16.1572 7.24041 16.3498 7.38173 16.5686C7.78893 17.1991 8.3918 18.0373 9.17401 18.8716C10.7567 20.5598 12.9551 22.1111 15.6667 22.1111C18.3783 22.1111 20.5767 20.5598 22.1594 18.8716C22.9416 18.0373 23.5445 17.1991 23.9517 16.5686C24.093 16.3498 24.2099 16.1572 24.3019 16C24.2099 15.8428 24.093 15.6502 23.9517 15.4314C23.5445 14.8009 22.9416 13.9627 22.1594 13.1284C20.5767 11.4402 18.3783 9.88889 15.6667 9.88889C12.9551 9.88889 10.7567 11.4402 9.17401 13.1284C8.3918 13.9627 7.78893 14.8009 7.38173 15.4314C7.24041 15.6502 7.12344 15.8428 7.03147 16ZM25.4445 16C26.3389 15.5528 26.3386 15.5521 26.3386 15.5521L26.337 15.549L26.3338 15.5427L26.3234 15.5224C26.3148 15.5055 26.3026 15.482 26.2869 15.4524C26.2556 15.3932 26.2102 15.3093 26.1511 15.2042C26.033 14.9941 25.8593 14.6987 25.6317 14.3464C25.1778 13.6435 24.5029 12.7039 23.6185 11.7605C21.8678 9.8931 19.1773 7.88889 15.6667 7.88889C12.1561 7.88889 9.46562 9.8931 7.71493 11.7605C6.83047 12.7039 6.15556 13.6435 5.70165 14.3464C5.47408 14.6987 5.30042 14.9941 5.18227 15.2042C5.12316 15.3093 5.07783 15.3932 5.04649 15.4524C5.03081 15.482 5.01863 15.5055 5.00996 15.5224L4.99958 15.5427L4.99637 15.549L4.99527 15.5512C4.99527 15.5512 4.99449 15.5528 5.88892 16L4.99449 15.5528C4.85373 15.8343 4.85373 16.1657 4.99449 16.4472L5.88892 16C4.99449 16.4472 4.99449 16.4472 4.99449 16.4472L4.99527 16.4488L4.99637 16.451L4.99958 16.4573L5.00996 16.4776C5.01863 16.4945 5.03081 16.518 5.04649 16.5476C5.07783 16.6068 5.12316 16.6907 5.18227 16.7958C5.30042 17.0059 5.47408 17.3013 5.70165 17.6536C6.15556 18.3565 6.83047 19.2961 7.71493 20.2395C9.46562 22.1069 12.1561 24.1111 15.6667 24.1111C19.1773 24.1111 21.8678 22.1069 23.6185 20.2395C24.5029 19.2961 25.1778 18.3565 25.6317 17.6536C25.8593 17.3013 26.033 17.0059 26.1511 16.7958C26.2102 16.6907 26.2556 16.6068 26.2869 16.5476C26.3026 16.518 26.3148 16.4945 26.3234 16.4776L26.3338 16.4573L26.337 16.451L26.3381 16.4488C26.3381 16.4488 26.3389 16.4472 25.4445 16ZM25.4445 16L26.3389 16.4472C26.4797 16.1657 26.4793 15.8336 26.3386 15.5521L25.4445 16Z" fill="#DBDDE0"/>
<path fill-rule="evenodd" clip-rule="evenodd" d="M15.6667 14.3333C14.7462 14.3333 14 15.0795 14 16C14 16.9205 14.7462 17.6667 15.6667 17.6667C16.5871 17.6667 17.3333 16.9205 17.3333 16C17.3333 15.0795 16.5871 14.3333 15.6667 14.3333ZM12 16C12 13.975 13.6416 12.3333 15.6667 12.3333C17.6917 12.3333 19.3333 13.975 19.3333 16C19.3333 18.0251 17.6917 19.6667 15.6667 19.6667C13.6416 19.6667 12 18.0251 12 16Z" fill="#DBDDE0"/>
<path fill-rule="evenodd" clip-rule="evenodd" d="M16 30C23.732 30 30 23.732 30 16C30 8.26801 23.732 2 16 2C8.26801 2 2 8.26801 2 16C2 23.732 8.26801 30 16 30ZM16 32C24.8366 32 32 24.8366 32 16C32 7.16344 24.8366 0 16 0C7.16344 0 0 7.16344 0 16C0 24.8366 7.16344 32 16 32Z" fill="#DBDDE0"/>
</svg>
