<svg width="32" height="32" viewBox="0 0 32 32" fill="none" xmlns="http://www.w3.org/2000/svg">
<rect x="1" y="1" width="30" height="30" rx="15" fill="#101115"/>
<path d="M5.88892 16C5.88892 16 9.44447 8.88889 15.6667 8.88889C21.8889 8.88889 25.4445 16 25.4445 16C25.4445 16 21.8889 23.1111 15.6667 23.1111C9.44447 23.1111 5.88892 16 5.88892 16Z" stroke="#DBDDE0" stroke-width="2" stroke-linecap="round" stroke-linejoin="round"/>
<path d="M15.6667 18.6667C17.1394 18.6667 18.3333 17.4728 18.3333 16C18.3333 14.5273 17.1394 13.3333 15.6667 13.3333C14.1939 13.3333 13 14.5273 13 16C13 17.4728 14.1939 18.6667 15.6667 18.6667Z" stroke="#DBDDE0" stroke-width="2" stroke-linecap="round" stroke-linejoin="round"/>
<rect x="1" y="1" width="30" height="30" rx="15" stroke="#DBDDE0" stroke-width="2"/>
</svg>
