<svg width="32" height="32" viewBox="0 0 32 32" fill="none" xmlns="http://www.w3.org/2000/svg">
<rect x="1" y="1" width="30" height="30" rx="15" fill="#DBDDE0"/>
<path fill-rule="evenodd" clip-rule="evenodd" d="M6.45588 16C6.46644 16.019 6.4777 16.0392 6.48963 16.0604C6.59462 16.2471 6.75258 16.516 6.96171 16.8398C7.38059 17.4884 8.00147 18.352 8.80924 19.2136C10.4339 20.9465 12.7553 22.6111 15.6667 22.6111C18.5781 22.6111 20.8995 20.9465 22.5241 19.2136C23.3319 18.352 23.9528 17.4884 24.3717 16.8398C24.5808 16.516 24.7388 16.2471 24.8438 16.0604C24.8557 16.0392 24.8669 16.019 24.8775 16C24.8669 15.9809 24.8557 15.9608 24.8438 15.9396C24.7388 15.7529 24.5808 15.484 24.3717 15.1601C23.9528 14.5116 23.3319 13.648 22.5241 12.7864C20.8995 11.0534 18.5781 9.38889 15.6667 9.38889C12.7553 9.38889 10.4339 11.0534 8.80924 12.7864C8.00147 13.648 7.38059 14.5116 6.96171 15.1601C6.75258 15.484 6.59462 15.7529 6.48963 15.9396C6.4777 15.9608 6.46644 15.981 6.45588 16ZM25.4445 16C25.8917 15.7764 25.8916 15.7762 25.8915 15.776L25.8904 15.7739L25.8878 15.7688L25.8788 15.751C25.871 15.7358 25.8597 15.7141 25.845 15.6863C25.8155 15.6306 25.7722 15.5505 25.7153 15.4493C25.6016 15.2471 25.4331 14.9605 25.2117 14.6176C24.7695 13.9329 24.1126 13.0186 23.2537 12.1025C21.545 10.2799 18.9776 8.38889 15.6667 8.38889C12.3558 8.38889 9.78838 10.2799 8.0797 12.1025C7.22081 13.0186 6.56391 13.9329 6.12167 14.6176C5.90025 14.9605 5.73182 15.2471 5.61806 15.4493C5.56116 15.5505 5.51788 15.6306 5.48843 15.6863C5.4737 15.7141 5.46243 15.7358 5.45463 15.751L5.44555 15.7688L5.44297 15.7739L5.44217 15.7755C5.44207 15.7757 5.4417 15.7764 5.88892 16L5.4417 15.7764C5.37132 15.9172 5.37132 16.0828 5.4417 16.2236L5.88892 16C5.4417 16.2236 5.4416 16.2234 5.4417 16.2236L5.44297 16.2261L5.44555 16.2312L5.45463 16.249C5.46243 16.2642 5.4737 16.2859 5.48843 16.3137C5.51788 16.3694 5.56116 16.4495 5.61806 16.5507C5.73182 16.7529 5.90025 17.0395 6.12167 17.3824C6.56391 18.0671 7.22081 18.9814 8.0797 19.8975C9.78838 21.7201 12.3558 23.6111 15.6667 23.6111C18.9776 23.6111 21.545 21.7201 23.2537 19.8975C24.1126 18.9814 24.7695 18.0671 25.2117 17.3824C25.4331 17.0395 25.6016 16.7529 25.7153 16.5507C25.7722 16.4495 25.8155 16.3694 25.845 16.3137C25.8597 16.2859 25.871 16.2642 25.8788 16.249L25.8878 16.2312L25.8904 16.2261L25.8912 16.2245C25.8913 16.2243 25.8917 16.2236 25.4445 16ZM25.4445 16L25.8917 16.2236C25.9621 16.0828 25.9619 15.9168 25.8915 15.776L25.4445 16Z" fill="#101115"/>
<path d="M25.4445 16C25.8917 15.7764 25.8916 15.7762 25.8915 15.776M25.4445 16C25.8917 16.2236 25.8913 16.2243 25.8912 16.2245L25.8904 16.2261L25.8878 16.2312L25.8788 16.249C25.871 16.2642 25.8597 16.2859 25.845 16.3137C25.8155 16.3694 25.7722 16.4495 25.7153 16.5507C25.6016 16.7529 25.4331 17.0395 25.2117 17.3824C24.7695 18.0671 24.1126 18.9814 23.2537 19.8975C21.545 21.7201 18.9776 23.6111 15.6667 23.6111C12.3558 23.6111 9.78838 21.7201 8.0797 19.8975C7.22081 18.9814 6.56391 18.0671 6.12167 17.3824C5.90025 17.0395 5.73182 16.7529 5.61806 16.5507C5.56116 16.4495 5.51788 16.3694 5.48843 16.3137C5.4737 16.2859 5.46243 16.2642 5.45463 16.249L5.44555 16.2312L5.44297 16.2261L5.4417 16.2236M25.4445 16L25.8917 16.2236C25.9621 16.0828 25.9619 15.9168 25.8915 15.776M25.4445 16L25.8915 15.776M25.8915 15.776L25.8904 15.7739L25.8878 15.7688L25.8788 15.751C25.871 15.7358 25.8597 15.7141 25.845 15.6863C25.8155 15.6306 25.7722 15.5505 25.7153 15.4493C25.6016 15.2471 25.4331 14.9605 25.2117 14.6176C24.7695 13.9329 24.1126 13.0186 23.2537 12.1025C21.545 10.2799 18.9776 8.38889 15.6667 8.38889C12.3558 8.38889 9.78838 10.2799 8.0797 12.1025C7.22081 13.0186 6.56391 13.9329 6.12167 14.6176C5.90025 14.9605 5.73182 15.2471 5.61806 15.4493C5.56116 15.5505 5.51788 15.6306 5.48843 15.6863C5.4737 15.7141 5.46243 15.7358 5.45463 15.751L5.44555 15.7688L5.44297 15.7739L5.44217 15.7755C5.44207 15.7757 5.4417 15.7764 5.88892 16M5.88892 16L5.4417 15.7764C5.37132 15.9172 5.37132 16.0828 5.4417 16.2236M5.88892 16L5.4417 16.2236M5.88892 16C5.4417 16.2236 5.4416 16.2234 5.4417 16.2236M6.48963 16.0604C6.4777 16.0392 6.46644 16.019 6.45588 16C6.46644 15.981 6.4777 15.9608 6.48963 15.9396C6.59462 15.7529 6.75258 15.484 6.96171 15.1601C7.38059 14.5116 8.00147 13.648 8.80924 12.7864C10.4339 11.0534 12.7553 9.38889 15.6667 9.38889C18.5781 9.38889 20.8995 11.0534 22.5241 12.7864C23.3319 13.648 23.9528 14.5116 24.3717 15.1601C24.5808 15.484 24.7388 15.7529 24.8438 15.9396C24.8557 15.9608 24.8669 15.9809 24.8775 16C24.8669 16.019 24.8557 16.0392 24.8438 16.0604C24.7388 16.2471 24.5808 16.516 24.3717 16.8398C23.9528 17.4884 23.3319 18.352 22.5241 19.2136C20.8995 20.9465 18.5781 22.6111 15.6667 22.6111C12.7553 22.6111 10.4339 20.9465 8.80924 19.2136C8.00147 18.352 7.38059 17.4884 6.96171 16.8398C6.75258 16.516 6.59462 16.2471 6.48963 16.0604Z" stroke="#101115" stroke-linecap="round" stroke-linejoin="round"/>
<path fill-rule="evenodd" clip-rule="evenodd" d="M15.6667 13.8333C14.47 13.8333 13.5 14.8034 13.5 16C13.5 17.1966 14.47 18.1667 15.6667 18.1667C16.8633 18.1667 17.8333 17.1966 17.8333 16C17.8333 14.8034 16.8633 13.8333 15.6667 13.8333ZM12.5 16C12.5 14.2511 13.9178 12.8333 15.6667 12.8333C17.4156 12.8333 18.8333 14.2511 18.8333 16C18.8333 17.7489 17.4156 19.1667 15.6667 19.1667C13.9178 19.1667 12.5 17.7489 12.5 16Z" fill="#101115" stroke="#101115" stroke-linecap="round" stroke-linejoin="round"/>
<rect x="1" y="1" width="30" height="30" rx="15" stroke="#101115" stroke-width="2"/>
</svg>
